# xmcd
#
# Track frame offsets:
#	150
#	16181
#	35311
#	53200
#	71399
#	88341
#	106888
#	124753
#	139122
#	156994
#
# Disc length: 2288 seconds
# Revision: 2
# Processed by: cddbd v1.5.2PL0 Copyright (c) Steve Scherf et al.
# Submitted via: dBpowerAMP V12.0
#
DISCID=8008ee0a
DTITLE=Common - Universal Mind Control
DYEAR=2008
DGENRE=Hip-Hop
TTITLE0=Universal Mind Control [UMC]
TTITLE1=Punch Drunk Love [Feat. Kanye West]
TTITLE2=Make My Day [Feat. Cee-Lo]
TTITLE3=Sex 4 Suga
TTITLE4=Announcement [Feat. Pharrell]
TTITLE5=Gladiator
TTITLE6=Changes [Feat. Muhsinah]
TTITLE7=Inhale
TTITLE8=What A World
TTITLE9=Everywhere [Feat. Martina Topley-Bird]
EXTD=
EXTT0=
EXTT1=
EXTT2=
EXTT3=
EXTT4=
EXTT5=
EXTT6=
EXTT7=
EXTT8=
EXTT9=
PLAYORDER=
